<?xml version="1.0" encoding="utf-8"?>
<!-- Generator: Adobe Illustrator 22.0.1, SVG Export Plug-In . SVG Version: 6.00 Build 0)  -->
<svg version="1.1" id="Calque_1" xmlns="http://www.w3.org/2000/svg" xmlns:xlink="http://www.w3.org/1999/xlink" x="0px" y="0px"
	 viewBox="0 0 927.7 928.1" style="enable-background:new 0 0 927.7 928.1;" xml:space="preserve">
<style type="text/css">
	.st0{fill:#FFFFFF;}
</style>
<g>
	<path class="st0" d="M450.6,589.6h20.1c-0.4-6.7-0.8-13.4-1.4-20h-13.6C453.9,576.2,452.1,582.9,450.6,589.6z"/>
</g>
<g>
	<path class="st0" d="M444.5,626.6h27.3c-0.1-6.7-0.3-13.3-0.5-20h-24C446.2,613.2,445.3,619.9,444.5,626.6z"/>
</g>
<g>
	<path class="st0" d="M374.2,606.6H22.3c2.2,6.7,4.5,13.4,7,20h344.4C373.8,619.9,374,613.3,374.2,606.6z"/>
</g>
<g>
	<path class="st0" d="M434.6,681.1c2.2,5.4,4.3,11,5.2,16.8c0.1,0.9,0.3,1.8,0.4,2.7h28.3c1.2-6.7,2.4-13.3,3.1-20h-37.2
		C434.4,680.8,434.5,680.9,434.6,681.1z"/>
</g>
<g>
	<path class="st0" d="M442.5,643.6c-0.7,6.2-1.4,12.4-2.3,18.6c-0.1,0.5-0.2,0.9-0.3,1.4h32.2c-0.1-6.7-0.1-13.3-0.2-20H442.5z"/>
</g>
<g>
	<path class="st0" d="M375.3,569.6H12c1.6,6.7,3.3,13.4,5.1,20h357.5C374.9,582.9,375.1,576.3,375.3,569.6z"/>
</g>
<g>
	<path class="st0" d="M443.8,731c0.1,1.8,0.3,3.7,0.4,5.5c0,0.3,0.1,0.7,0.1,1h19.9c0.6-6.7,1.2-13.3,1.8-20h-23.6
		C442.8,722.1,443.3,726.6,443.8,731z"/>
</g>
<g>
	<path class="st0" d="M464.2,532.6c-1.1,5.5-2.3,12.3-3.8,19c-0.1,0.3-0.2,0.6-0.2,1h7.3c-0.8-6.7-1.8-13.4-2.9-20H464.2z"/>
</g>
<g>
	<path class="st0" d="M379.1,506c0.1-3.4-1.6-7.1-3.6-10.4H1c0.4,6.7,1,13.4,1.8,20h375.7C378.8,512.4,379,509.2,379.1,506z"/>
</g>
<g>
	<path class="st0" d="M518.9,799.6c-0.5,4-1.2,8-2,12h254.6c7.3-6.4,14.4-13.1,21.2-20H519.8C519.5,794.3,519.2,797,518.9,799.6z"/>
</g>
<g>
	<path class="st0" d="M362.8,359.5c3.2,4.3,6.2,8,8.8,12c1.1,1.7,2.1,3.7,1.9,5.7c-0.3,8.4-0.3,17-1.9,25.1
		c-1.8,9-2.5,16.6,4.3,24.3c4.7,5.4,7,12.8,10.6,19.2c0.6,1,2.1,2.3,2.8,2.2c1.2-0.3,2.9-1.7,3-2.8c1-9,2.3-18.1,2.6-27.3
		c0-9.4-1.2-18.9-2.1-28.4c-2.2-23.3-4.3-46.8-6.8-70.2c-0.4-3.7-2.2-7.3-3.3-10.9c-0.8,15.3-0.8,15.3-8.4,29.1
		c-0.3,0.4-0.6,0.8-0.6,1.2C374.5,347.9,368.9,354,362.8,359.5z"/>
</g>
<g>
	<path class="st0" d="M405.7,791.6H135.3c6.9,6.9,13.9,13.6,21.2,20h257.1C411.2,804.9,408.4,798.2,405.7,791.6z"/>
</g>
<g>
	<path class="st0" d="M464,0.1C207.7,0.1,0,207.8,0,464.1c0,4.9,0.1,9.7,0.2,14.5h362.4c-0.3-0.4-0.6-0.7-0.9-1.1
		c-2.3-2.8-5.1-5.1-7.6-7.7c-1.7-1.8-3.9-3.5-4.4-5.7c-3.4-14.1-9.9-26.6-17.4-38.8c-8.1-13.2-9.9-28.2-9-43.2
		c0.4-5.1,2.5-9.8-0.6-14.6c-0.4-0.7-0.1-2.2,0.1-3.3c5.5-23.7,11-47.6,16.6-71.3c3-13.2,5.2-26.6,9.4-39.5
		c4.1-12.7,9.7-24.8,15.2-36.8c3.9-8.4,12.1-11.5,20.4-13.8c13.7-3.9,27.2-8.3,40.8-11.9c8.3-2.2,11.6-7.7,13.4-15.5
		c0.7-2.9,3.2-5.5,5-8.3c0.6-0.8,1.8-1.2,1.8-1.9c0.3-10.6,2.5-22.1-4.8-31c-7.2-8.8-9.2-17.8-5.5-28.6c0.1-0.3,0.1-0.7,0.3-1
		c-0.3-0.7-0.3-1.2-0.4-2.3c-0.3-2.1-0.3-3.7-0.1-5c0.3-3.6,0.6-7.2,0.7-10.8c0.1-3.5,0.8-6.9,1.8-10.2c1-3.2,2.2-6.2,4-9
		c0.8-1.4,1.7-2.9,2.6-4.1c1.2-1.7,2.8-3.2,4.3-4.7s3.2-2.9,4.8-4.1c0.6-0.4,1.1-0.8,1.7-1.1c2.2-1.2,4.6-2.3,6.9-3.3
		c0.8-0.4,1.8-0.7,2.6-0.8c2.8-0.7,5.5-1.4,8.4-1.5c1.2,0,2.3-0.1,3.6-0.4c0.6-0.1,1.5-0.4,2.1-0.7c1.4-0.7,2.8-1.2,4.3-0.6
		c1.1,0.4,2.2,0.7,3.4,0.6c3.2-0.1,6.2,0.7,9.2,1.4c0.8,0.1,1.5,0.4,2.3,0.7c3,1,6.3,1.9,9.4,3.3c2.2,1,4.1,2.3,5.9,3.9
		c1.9,1.8,3.6,3.7,4.8,5.9c0.8,1.5,1.4,3,1.9,4.6c1,3,1.5,6.2,1.7,9.4c0.1,2.3,0.1,4.8,0.3,7.3c1.2,3.2,1.4,6.5,0.8,9.8
		c0.3,1.2,0.4,2.6,0.6,3.9c0.1,1,0.6,1.5,1.7,1.9c1.5,0.6,3,1.1,4.4,1.9c2.2,1.2,4.7,2.2,7,3.5c2.6,1.4,5.4,2.8,7.9,4.3
		c1.7,1,3.3,2.1,4.1,4.1c0.1,0.3,0.3,0.7,0.1,1.1c0,0.1-0.1,1.1-0.7,1.8s-1.2,0.8-2.2,1.1c-3.9,1.1-3.7,1.1-3.9,1.1
		c-1.9,0.4-3.3,0.7-4.4,0.8c-4.3,0.7-0.8,0.1-5.4,0.8c-7.2,1.1-6.5,0.8-7.6,1.1c-4.7,0.8-7.5,1.4-9.1,2.2c-2.6,11-5.1,22.1-7.9,33
		c-0.7,2.8-2.1,5.7-3.9,8c-2.8,3.5-2.3,6.6-1.9,10.8c1.1,11.6,7.9,17,17.9,20.7c13,4.8,25.4,10.8,38.1,16.1
		c14.2,6.1,18.4,19.9,23.9,32.3c1.9,4.3,2.8,9.2,3.7,13.9c5.1,23.9,10.2,47.6,15,71.5c1.8,9,3.3,17.9,4,27c0.4,6.6-0.6,13.4-1,20
		c-0.3,4.4,2.9,9.4-1.9,13.4c-0.4,0.4,0,2.5,0.7,3.2c9.2,10.6,4.6,22.1-2.2,30.5c-9.1,11.6-13.4,24.3-16.1,38.1
		c-0.6,2.5-2.2,5.1-3.9,7c-3.2,3.7-6.8,7.1-10.2,10.6h358.3c0.1-4.8,0.2-9.6,0.2-14.5C928,207.8,720.2,0.1,464,0.1z"/>
</g>
<g>
	<path class="st0" d="M559.2,362.2c0.4-3.7,2.1-8.6,0.4-11.2c-5.9-9.1-11.3-18.1-11.6-29.7c-9.5,41.5-12.1,83.1-0.7,126.3
		c5.1-9.9,11.7-18.1,13.5-27.2c1.9-9.9-0.7-20.8-1.4-31c0-0.8-0.8-1.7-1-2.5c-0.6-2.9-1.5-5.8-1.4-8.7
		C557.4,372.8,558.6,367.5,559.2,362.2z"/>
</g>
<g>
	<path class="st0" d="M462.8,754.6h-16.6c0.8,6.7,1.4,13.3,1.7,20h13.3C461.8,768,462.3,761.3,462.8,754.6z"/>
</g>
<g>
	<path class="st0" d="M457.8,811.6h0.5c0.5-6.6,1.1-13.3,1.6-20h-9.8c1.2,3.4,2.9,6.6,5.5,9.8C457.7,804,457.7,808.2,457.8,811.6z"
		/>
</g>
<g>
	<path class="st0" d="M372.9,654.7c0.1-3.7,0.2-7.4,0.3-11.1H36c2.8,6.7,5.8,13.4,9,20h330.9C374.5,660.6,372.8,657.7,372.9,654.7z"
		/>
</g>
<g>
	<path class="st0" d="M376.5,539c0.1-2.1,0.2-4.2,0.4-6.4H5c1,6.7,2.1,13.4,3.4,20h367.5C376.1,548,376.3,543.5,376.5,539z"/>
</g>
<g>
	<path class="st0" d="M533.5,663.6H883c3.1-6.6,6.1-13.3,9-20H535.7C535,650.3,534.3,656.9,533.5,663.6z"/>
</g>
<g>
	<path class="st0" d="M529.2,700.6h334.1c3.9-6.6,7.6-13.2,11.2-20h-343C530.8,687.3,530,693.9,529.2,700.6z"/>
</g>
<g>
	<path class="st0" d="M537.5,626.6h361.2c2.5-6.6,4.8-13.3,7-20H539.4C538.8,613.3,538.2,619.9,537.5,626.6z"/>
</g>
<g>
	<path class="st0" d="M525.2,735.9c-0.1,0.6-0.1,1.1-0.2,1.7h313.8c4.8-6.5,9.4-13.2,13.8-20H527.3
		C526.6,723.7,525.9,729.8,525.2,735.9z"/>
</g>
<g>
	<path class="st0" d="M541.1,589.6h369.7c1.9-6.6,3.6-13.3,5.1-20H543.1C542.4,576.3,541.7,582.9,541.1,589.6z"/>
</g>
<g>
	<path class="st0" d="M380,680.6H53.5c3.6,6.8,7.3,13.4,11.2,20h315.9C380,694,379.8,687.4,380,680.6z"/>
</g>
<g>
	<path class="st0" d="M521.5,774.6h287.3c5.9-6.5,11.5-13.2,17-20H523.3C522.7,761.3,522.1,767.9,521.5,774.6z"/>
</g>
<g>
	<path class="st0" d="M545.2,551.6c0,0.3-0.1,0.6-0.1,0.9h374.4c1.3-6.6,2.4-13.3,3.4-20H548.3C547.1,538.9,546.1,545.3,545.2,551.6
		z"/>
</g>
<g>
	<path class="st0" d="M551.6,515.6h373.6c0.7-6.6,1.3-13.3,1.8-20H555.6C554.3,502.3,552.9,508.9,551.6,515.6z"/>
</g>
<g>
	<path class="st0" d="M419.9,835.4c-0.4-2.3-0.8-4.5-1.3-6.8H176.8c8.9,7,18,13.7,27.3,20H423C421.9,844.2,420.6,839.8,419.9,835.4z
		"/>
</g>
<g>
	<path class="st0" d="M398.3,772.4c-2-5.9-4-11.9-5.9-17.9H102.1c5.5,6.8,11.2,13.5,17,20h279.8
		C398.8,773.9,398.5,773.2,398.3,772.4z"/>
</g>
<g>
	<path class="st0" d="M382.9,717.6H75.3c4.4,6.8,9,13.5,13.8,20h298.3C385.7,731,384.2,724.3,382.9,717.6z"/>
</g>
<g>
	<path class="st0" d="M425.4,865.6H231.3c12.5,7.2,25.3,13.9,38.5,20h153.6C424,879,424.8,872.3,425.4,865.6z"/>
</g>
<g>
	<path class="st0" d="M459.7,919.6c0.3-2.5-1.1-5.2-1.9-8.8c-5.1,0-10.5,0-15.9,0c-9.7,0-15.4-2.4-17.8-8.1H311.9
		c47.5,16.5,98.6,25.5,151.7,25.5C460.7,927.2,458.8,925.1,459.7,919.6z"/>
</g>
<g>
	<path class="st0" d="M499.7,878.3c-2.3-0.1-4.3-0.3-6.5-0.4c0.1,2.7,0.4,5.3,1,7.7h164c13.2-6.1,26-12.8,38.5-20H503.1
		C502,869.8,500.8,874,499.7,878.3z"/>
</g>
<g>
	<path class="st0" d="M504.7,908.5c1.4,2.3,3,4.7,4,7.2c1.6,4.5,0.7,8.3-2.1,10.5c38-3.5,74.7-11.5,109.5-23.6H501.4
		C502.5,904.6,503.6,906.5,504.7,908.5z"/>
</g>
<g>
	<path class="st0" d="M507.6,848.6h216.2c9.4-6.3,18.5-13,27.3-20H512.8C511.1,835.3,509.4,841.9,507.6,848.6z"/>
</g>
</svg>
