<?xml version="1.0" encoding="utf-8"?>
<!-- Generator: Adobe Illustrator 22.0.1, SVG Export Plug-In . SVG Version: 6.00 Build 0)  -->
<svg version="1.1" id="Calque_1" xmlns="http://www.w3.org/2000/svg" xmlns:xlink="http://www.w3.org/1999/xlink" x="0px" y="0px"
	 viewBox="0 0 100 125" style="enable-background:new 0 0 100 125;" xml:space="preserve">
<g>
	<g>
		<g>
			<g>
				<path d="M84.5,78.1h-69c-1.1,0-2-0.9-2-2V23.9c0-1.1,0.9-2,2-2h69c1.1,0,2,0.9,2,2v52.1C86.5,77.2,85.6,78.1,84.5,78.1z
					 M17.5,74.1h65V25.9h-65V74.1z"/>
			</g>
		</g>
		<g>
			<g>
				<path d="M50,59.1c-0.5,0-1-0.2-1.4-0.6L14.1,25.4c-0.6-0.6-0.8-1.4-0.5-2.2c0.3-0.8,1-1.3,1.9-1.3h69c0.8,0,1.6,0.5,1.9,1.3
					c0.3,0.8,0.1,1.6-0.5,2.2L51.4,58.5C51,58.9,50.5,59.1,50,59.1z M20.5,25.9L50,54.3l29.5-28.4H20.5z"/>
			</g>
		</g>
	</g>
</g>
</svg>
