<?xml version="1.0" encoding="utf-8"?>
<!-- Generator: Adobe Illustrator 22.0.1, SVG Export Plug-In . SVG Version: 6.00 Build 0)  -->
<svg version="1.1" id="Calque_1" xmlns="http://www.w3.org/2000/svg" xmlns:xlink="http://www.w3.org/1999/xlink" x="0px" y="0px"
	 viewBox="0 0 60 75" style="enable-background:new 0 0 60 75;" xml:space="preserve">
<g>
	<path d="M6,54h14.1V6H6V54z M10.2,10.8h5.6v2h-5.6V10.8z M10.2,16h5.6v2h-5.6V16z M10.2,21.3h5.6v2h-5.6V21.3z M10.2,26.5h5.6v2
		h-5.6V26.5z M13,43.3c1.7,0,3.2,1.4,3.2,3.2s-1.4,3.2-3.2,3.2c-1.8,0-3.2-1.4-3.2-3.2S11.3,43.3,13,43.3z"/>
	<path d="M23,54H37V6H23V54z M27.2,10.8h5.6v2h-5.6V10.8z M27.2,16h5.6v2h-5.6V16z M27.2,21.3h5.6v2h-5.6V21.3z M27.2,26.5h5.6v2
		h-5.6V26.5z M30,43.3c1.8,0,3.2,1.4,3.2,3.2s-1.4,3.2-3.2,3.2s-3.2-1.4-3.2-3.2S28.2,43.3,30,43.3z"/>
	<path d="M39.9,6v48H54V6H39.9z M44.2,10.8h5.6v2h-5.6V10.8z M44.2,16h5.6v2h-5.6V16z M44.2,21.3h5.6v2h-5.6V21.3z M44.2,26.5h5.6v2
		h-5.6V26.5z M47,49.6c-1.7,0-3.2-1.4-3.2-3.2s1.4-3.2,3.2-3.2c1.8,0,3.2,1.4,3.2,3.2S48.7,49.6,47,49.6z"/>
</g>
</svg>
