<svg xmlns="http://www.w3.org/2000/svg" xmlns:xlink="http://www.w3.org/1999/xlink" version="1.1" x="0px" y="0px" viewBox="0 0 32 40" enable-background="new 0 0 32 32" xml:space="preserve"><g><g><g><path d="M16,17c4.41,0,8-3.59,8-8s-3.59-8-8-8S8,4.59,8,9S11.59,17,16,17z"/></g><g><path d="M27,29.79C26.89,23.82,22,19,16,19C9.93,19,5,23.93,5,30c0,0.55,0.45,1,1,1h20c0.01,0,0.01,0,0.02,0c0.55,0,1-0.45,1-1     C27.02,29.93,27.01,29.86,27,29.79z"/></g></g></g><text x="0" y="47" fill="#000000" font-size="5px" font-weight="bold" font-family="'Helvetica Neue', Helvetica, Arial-Unicode, Arial, Sans-serif">Created by Icon Lauk</text><text x="0" y="52" fill="#000000" font-size="5px" font-weight="bold" font-family="'Helvetica Neue', Helvetica, Arial-Unicode, Arial, Sans-serif">from the Noun Project</text></svg>