<?xml version="1.0" encoding="utf-8"?>
<!-- Generator: Adobe Illustrator 22.0.1, SVG Export Plug-In . SVG Version: 6.00 Build 0)  -->
<svg version="1.1" id="Calque_1" xmlns="http://www.w3.org/2000/svg" xmlns:xlink="http://www.w3.org/1999/xlink" x="0px" y="0px"
	 viewBox="0 0 52 65" style="enable-background:new 0 0 52 65;" xml:space="preserve">
<g>
	<g>
		<path d="M20,27c-0.6,0-1-0.4-1-1V14c0-0.6,0.4-1,1-1s1,0.4,1,1v12C21,26.6,20.6,27,20,27z"/>
	</g>
	<g>
		<path d="M10,27c-0.6,0-1-0.4-1-1V14c0-0.6,0.4-1,1-1s1,0.4,1,1v12C11,26.6,10.6,27,10,27z"/>
	</g>
	<g>
		<path d="M22,15H8c-0.6,0-1-0.4-1-1v-4c0-0.6,0.4-1,1-1h14c0.6,0,1,0.4,1,1v4C23,14.6,22.6,15,22,15z M9,13h12v-2H9V13z"/>
	</g>
	<g>
		<path d="M22,31H8c-0.6,0-1-0.4-1-1v-4c0-0.6,0.4-1,1-1h14c0.6,0,1,0.4,1,1v4C23,30.6,22.6,31,22,31z M9,29h12v-2H9V29z"/>
	</g>
	<g>
		<path d="M25,39H6c-0.6,0-1-0.4-1-1v-4c0-0.6,0.4-1,1-1h19c0.6,0,1,0.4,1,1v4C26,38.6,25.6,39,25,39z M7,37h17v-2H7V37z"/>
	</g>
	<g>
		<path d="M28,43H3c-0.6,0-1-0.4-1-1v-1.5C2,38.6,3.6,37,5.5,37h20c1.9,0,3.5,1.6,3.5,3.5V42C29,42.6,28.6,43,28,43z M4,41h23v-0.5
			c0-0.8-0.7-1.5-1.5-1.5h-20C4.7,39,4,39.7,4,40.5V41z"/>
	</g>
	<g>
		<path d="M47,23H20c-0.6,0-1-0.4-1-1v-4c0-0.6,0.4-1,1-1h27c1.7,0,3,1.3,3,3S48.7,23,47,23z M21,21h26c0.6,0,1-0.4,1-1s-0.4-1-1-1
			H21V21z"/>
	</g>
</g>
</svg>
