<?xml version="1.0" encoding="utf-8"?>
<!-- Generator: Adobe Illustrator 22.0.1, SVG Export Plug-In . SVG Version: 6.00 Build 0)  -->
<svg version="1.1" id="Calque_1" xmlns="http://www.w3.org/2000/svg" xmlns:xlink="http://www.w3.org/1999/xlink" x="0px" y="0px"
	 viewBox="0 0 100 125" style="enable-background:new 0 0 100 125;" xml:space="preserve">
<path d="M76.9,8.9H59.5c-1.1,0-2,0.9-2,2v78.3c0,1.1,0.9,2,2,2h17.4c1.1,0,2-0.9,2-2V10.8C78.9,9.8,78,8.9,76.9,8.9z M75,87.2H61.4
	V12.8H75V87.2z"/>
<path d="M40.5,8.9H23.1c-1.1,0-2,0.9-2,2v78.3c0,1.1,0.9,2,2,2h17.4c1.1,0,2-0.9,2-2V10.8C42.5,9.8,41.6,8.9,40.5,8.9z M38.6,87.2
	H25V12.8h13.5V87.2z"/>
</svg>
