<?xml version="1.0" encoding="utf-8"?>
<!-- Generator: Adobe Illustrator 22.0.1, SVG Export Plug-In . SVG Version: 6.00 Build 0)  -->
<svg version="1.1" id="Calque_1" xmlns="http://www.w3.org/2000/svg" xmlns:xlink="http://www.w3.org/1999/xlink" x="0px" y="0px"
	 viewBox="0 0 90 112.5" style="enable-background:new 0 0 90 112.5;" xml:space="preserve">
<path d="M64.9,66.4c-0.4,0-0.8-0.1-1.1-0.4L24.1,26.2c-0.6-0.6-0.6-1.5,0-2.1s1.5-0.6,2.1,0L66,63.9c0.6,0.6,0.6,1.5,0,2.1
	C65.7,66.2,65.3,66.4,64.9,66.4z"/>
<path d="M25.1,66.4c-0.4,0-0.8-0.1-1.1-0.4c-0.6-0.6-0.6-1.5,0-2.1l39.8-39.8c0.6-0.6,1.5-0.6,2.1,0s0.6,1.5,0,2.1L26.2,65.9
	C25.9,66.2,25.5,66.4,25.1,66.4z"/>
</svg>
